<mxfile host="65bd71144e">
    <diagram name="AWS ECS CI/CD Architecture" id="aws-architecture">
        <mxGraphModel dx="1733" dy="1145" grid="0" gridSize="10" guides="1" tooltips="1" connect="1" arrows="1" fold="1" page="0" pageScale="1" pageWidth="1169" pageHeight="827" math="0" shadow="0">
            <root>
                <mxCell id="0"/>
                <mxCell id="1" parent="0"/>
                <mxCell id="vpc" value="VPC (10.0.0.0/16)" style="points=[[0,0],[0.25,0],[0.5,0],[0.75,0],[1,0],[1,0.25],[1,0.5],[1,0.75],[1,1],[0.75,1],[0.5,1],[0.25,1],[0,1],[0,0.75],[0,0.5],[0,0.25]];outlineConnect=0;gradientColor=none;html=1;whiteSpace=wrap;fontSize=12;fontStyle=0;container=0;pointerEvents=0;collapsible=0;recursiveResize=0;shape=mxgraph.aws4.group;grIcon=mxgraph.aws4.group_vpc;strokeColor=#248814;fillColor=none;verticalAlign=top;align=left;spacingLeft=30;fontColor=#248814;dashed=0;" parent="1" vertex="1">
                    <mxGeometry x="-10" y="180" width="500" height="490" as="geometry"/>
                </mxCell>
                <mxCell id="s3-frontend" value="S3 Bucket&#xa;(Frontend)" style="outlineConnect=0;dashed=0;verticalLabelPosition=bottom;verticalAlign=top;align=center;html=1;shape=mxgraph.aws4.s3;fillColor=#7AA116;gradientColor=none;" parent="1" vertex="1">
                    <mxGeometry x="705" y="180" width="80" height="80" as="geometry"/>
                </mxCell>
                <mxCell id="cloudfront" value="CloudFront&#xa;Distribution" style="outlineConnect=0;dashed=0;verticalLabelPosition=bottom;verticalAlign=top;align=center;html=1;shape=mxgraph.aws4.cloudfront;fillColor=#F58534;gradientColor=none;" parent="1" vertex="1">
                    <mxGeometry x="560" y="90" width="80" height="80" as="geometry"/>
                </mxCell>
                <mxCell id="codepipeline" value="CodePipeline" style="outlineConnect=0;dashed=0;verticalLabelPosition=bottom;verticalAlign=top;align=center;html=1;shape=mxgraph.aws4.codepipeline;fillColor=#3F8FE8;gradientColor=none;" parent="1" vertex="1">
                    <mxGeometry x="705" y="470" width="80" height="80" as="geometry"/>
                </mxCell>
                <mxCell id="codebuild" value="CodeBuild" style="outlineConnect=0;dashed=0;verticalLabelPosition=bottom;verticalAlign=top;align=center;html=1;shape=mxgraph.aws4.codebuild;fillColor=#3F8FE8;gradientColor=none;" parent="1" vertex="1">
                    <mxGeometry x="705" y="340" width="80" height="80" as="geometry"/>
                </mxCell>
                <mxCell id="codedeploy" value="CodeDeploy" style="outlineConnect=0;dashed=0;verticalLabelPosition=bottom;verticalAlign=top;align=center;html=1;shape=mxgraph.aws4.codedeploy;fillColor=#3F8FE8;gradientColor=none;" parent="1" vertex="1">
                    <mxGeometry x="705" y="620" width="80" height="80" as="geometry"/>
                </mxCell>
                <mxCell id="s3-source" value="S3 Source&#xa;Bucket" style="outlineConnect=0;dashed=0;verticalLabelPosition=bottom;verticalAlign=top;align=center;html=1;shape=mxgraph.aws4.s3;fillColor=#7AA116;gradientColor=none;" parent="1" vertex="1">
                    <mxGeometry x="836" y="310" width="80" height="80" as="geometry"/>
                </mxCell>
                <mxCell id="s3-artifacts" value="S3 Artifacts&#xa;Bucket" style="outlineConnect=0;dashed=0;verticalLabelPosition=bottom;verticalAlign=top;align=center;html=1;shape=mxgraph.aws4.s3;fillColor=#7AA116;gradientColor=none;" parent="1" vertex="1">
                    <mxGeometry x="610" y="470" width="80" height="80" as="geometry"/>
                </mxCell>
                <mxCell id="eventbridge" value="EventBridge" style="outlineConnect=0;dashed=0;verticalLabelPosition=bottom;verticalAlign=top;align=center;html=1;shape=mxgraph.aws4.eventbridge;fillColor=#F58534;gradientColor=none;" parent="1" vertex="1">
                    <mxGeometry x="836" y="470" width="80" height="80" as="geometry"/>
                </mxCell>
                <mxCell id="user" value="User" style="outlineConnect=0;dashed=0;verticalLabelPosition=bottom;verticalAlign=top;align=center;html=1;shape=mxgraph.aws4.user;fillColor=#232F3E;gradientColor=none;" parent="1" vertex="1">
                    <mxGeometry x="320" y="-150" width="80" height="80" as="geometry"/>
                </mxCell>
                <mxCell id="conn1" style="edgeStyle=orthogonalEdgeStyle;rounded=0;orthogonalLoop=1;jettySize=auto;html=1;" parent="1" source="user" target="route53" edge="1">
                    <mxGeometry relative="1" as="geometry"/>
                </mxCell>
                <mxCell id="conn2" style="edgeStyle=orthogonalEdgeStyle;rounded=0;orthogonalLoop=1;jettySize=auto;html=1;" parent="1" source="route53" target="cloudfront" edge="1">
                    <mxGeometry relative="1" as="geometry">
                        <Array as="points">
                            <mxPoint x="600" y="60"/>
                        </Array>
                    </mxGeometry>
                </mxCell>
                <mxCell id="conn3" style="edgeStyle=orthogonalEdgeStyle;rounded=0;orthogonalLoop=1;jettySize=auto;html=1;" parent="1" source="cloudfront" target="s3-frontend" edge="1">
                    <mxGeometry relative="1" as="geometry"/>
                </mxCell>
                <mxCell id="conn4" style="edgeStyle=orthogonalEdgeStyle;rounded=0;orthogonalLoop=1;jettySize=auto;html=1;" parent="1" source="cloudfront" target="alb" edge="1">
                    <mxGeometry relative="1" as="geometry"/>
                </mxCell>
                <mxCell id="conn8" style="edgeStyle=orthogonalEdgeStyle;rounded=0;orthogonalLoop=1;jettySize=auto;html=1;exitX=0;exitY=0.5;exitDx=0;exitDy=0;" parent="1" source="28" target="s3-source" edge="1">
                    <mxGeometry relative="1" as="geometry">
                        <mxPoint x="1080.90909090909" y="280" as="sourcePoint"/>
                    </mxGeometry>
                </mxCell>
                <mxCell id="conn9" style="edgeStyle=orthogonalEdgeStyle;rounded=0;orthogonalLoop=1;jettySize=auto;html=1;" parent="1" source="s3-source" target="eventbridge" edge="1">
                    <mxGeometry relative="1" as="geometry"/>
                </mxCell>
                <mxCell id="conn10" style="edgeStyle=orthogonalEdgeStyle;rounded=0;orthogonalLoop=1;jettySize=auto;html=1;" parent="1" source="eventbridge" target="codepipeline" edge="1">
                    <mxGeometry relative="1" as="geometry"/>
                </mxCell>
                <mxCell id="conn11" style="edgeStyle=orthogonalEdgeStyle;rounded=0;orthogonalLoop=1;jettySize=auto;html=1;" parent="1" source="codepipeline" target="codebuild" edge="1">
                    <mxGeometry relative="1" as="geometry"/>
                </mxCell>
                <mxCell id="conn12" style="edgeStyle=orthogonalEdgeStyle;rounded=0;orthogonalLoop=1;jettySize=auto;html=1;" parent="1" source="codepipeline" target="codedeploy" edge="1">
                    <mxGeometry relative="1" as="geometry"/>
                </mxCell>
                <mxCell id="conn13" style="edgeStyle=orthogonalEdgeStyle;rounded=0;orthogonalLoop=1;jettySize=auto;html=1;entryX=1;entryY=0.5;entryDx=0;entryDy=0;entryPerimeter=0;" parent="1" source="codebuild" target="5" edge="1">
                    <mxGeometry relative="1" as="geometry">
                        <mxPoint x="640" y="380" as="targetPoint"/>
                    </mxGeometry>
                </mxCell>
                <mxCell id="conn14" style="edgeStyle=orthogonalEdgeStyle;rounded=0;orthogonalLoop=1;jettySize=auto;html=1;" parent="1" source="codebuild" target="s3-frontend" edge="1">
                    <mxGeometry relative="1" as="geometry"/>
                </mxCell>
                <mxCell id="conn15" style="edgeStyle=orthogonalEdgeStyle;rounded=0;orthogonalLoop=1;jettySize=auto;html=1;" parent="1" source="codedeploy" target="ecs-cluster" edge="1">
                    <mxGeometry relative="1" as="geometry"/>
                </mxCell>
                <mxCell id="title" value="AWS ECS CI/CD Architecture with CloudFormation" style="text;html=1;strokeColor=none;fillColor=none;align=center;verticalAlign=middle;whiteSpace=wrap;rounded=0;fontSize=16;fontStyle=1;" parent="1" vertex="1">
                    <mxGeometry x="370" y="740" width="400" height="20" as="geometry"/>
                </mxCell>
                <mxCell id="igw" value="Internet Gateway" style="outlineConnect=0;dashed=0;verticalLabelPosition=bottom;verticalAlign=top;align=center;html=1;shape=mxgraph.aws4.internet_gateway;fillColor=#F58534;gradientColor=none;" parent="1" vertex="1">
                    <mxGeometry x="200" y="132" width="80" height="80" as="geometry"/>
                </mxCell>
                <mxCell id="public-subnet-1" value="Public Subnet 1&#xa;(10.0.0.0/24)" style="points=[[0,0],[0.25,0],[0.5,0],[0.75,0],[1,0],[1,0.25],[1,0.5],[1,0.75],[1,1],[0.75,1],[0.5,1],[0.25,1],[0,1],[0,0.75],[0,0.5],[0,0.25]];outlineConnect=0;gradientColor=none;html=1;whiteSpace=wrap;fontSize=12;fontStyle=0;container=1;pointerEvents=0;collapsible=0;recursiveResize=0;shape=mxgraph.aws4.group;grIcon=mxgraph.aws4.group_security_group;strokeColor=#7AA116;fillColor=none;verticalAlign=top;align=left;spacingLeft=30;fontColor=#248814;dashed=0;" parent="1" vertex="1">
                    <mxGeometry x="20" y="240" width="200" height="150" as="geometry"/>
                </mxCell>
                <mxCell id="nat-gateway" value="NAT Gateway" style="outlineConnect=0;dashed=0;verticalLabelPosition=bottom;verticalAlign=top;align=center;html=1;shape=mxgraph.aws4.nat_gateway;fillColor=#F58534;gradientColor=none;" parent="public-subnet-1" vertex="1">
                    <mxGeometry x="60" y="60" width="80" height="60" as="geometry"/>
                </mxCell>
                <mxCell id="public-subnet-2" value="Public Subnet 2&#xa;(10.0.1.0/24)" style="points=[[0,0],[0.25,0],[0.5,0],[0.75,0],[1,0],[1,0.25],[1,0.5],[1,0.75],[1,1],[0.75,1],[0.5,1],[0.25,1],[0,1],[0,0.75],[0,0.5],[0,0.25]];outlineConnect=0;gradientColor=none;html=1;whiteSpace=wrap;fontSize=12;fontStyle=0;container=1;pointerEvents=0;collapsible=0;recursiveResize=0;shape=mxgraph.aws4.group;grIcon=mxgraph.aws4.group_security_group;strokeColor=#7AA116;fillColor=none;verticalAlign=top;align=left;spacingLeft=30;fontColor=#248814;dashed=0;" parent="1" vertex="1">
                    <mxGeometry x="260" y="240" width="200" height="150" as="geometry"/>
                </mxCell>
                <mxCell id="alb" value="Application&#xa;Load Balancer" style="outlineConnect=0;dashed=0;verticalLabelPosition=bottom;verticalAlign=top;align=center;html=1;shape=mxgraph.aws4.application_load_balancer;fillColor=#F58534;gradientColor=none;" parent="public-subnet-2" vertex="1">
                    <mxGeometry x="60" y="50" width="80" height="80" as="geometry"/>
                </mxCell>
                <mxCell id="private-subnet-1" value="Private Subnet 1&#xa;(10.0.2.0/24)" style="points=[[0,0],[0.25,0],[0.5,0],[0.75,0],[1,0],[1,0.25],[1,0.5],[1,0.75],[1,1],[0.75,1],[0.5,1],[0.25,1],[0,1],[0,0.75],[0,0.5],[0,0.25]];outlineConnect=0;gradientColor=none;html=1;whiteSpace=wrap;fontSize=12;fontStyle=0;container=1;pointerEvents=0;collapsible=0;recursiveResize=0;shape=mxgraph.aws4.group;grIcon=mxgraph.aws4.group_security_group;strokeColor=#7AA116;fillColor=none;verticalAlign=top;align=left;spacingLeft=30;fontColor=#248814;dashed=0;" parent="1" vertex="1">
                    <mxGeometry x="20" y="440" width="200" height="200" as="geometry"/>
                </mxCell>
                <mxCell id="ecs-task-1" value="ECS Fargate&#xa;Task" style="outlineConnect=0;dashed=0;verticalLabelPosition=bottom;verticalAlign=top;align=center;html=1;shape=mxgraph.aws4.fargate;fillColor=#F58534;gradientColor=none;" parent="private-subnet-1" vertex="1">
                    <mxGeometry x="60" y="70" width="80" height="60" as="geometry"/>
                </mxCell>
                <mxCell id="private-subnet-2" value="Private Subnet 2&#xa;(10.0.3.0/24)" style="points=[[0,0],[0.25,0],[0.5,0],[0.75,0],[1,0],[1,0.25],[1,0.5],[1,0.75],[1,1],[0.75,1],[0.5,1],[0.25,1],[0,1],[0,0.75],[0,0.5],[0,0.25]];outlineConnect=0;gradientColor=none;html=1;whiteSpace=wrap;fontSize=12;fontStyle=0;container=1;pointerEvents=0;collapsible=0;recursiveResize=0;shape=mxgraph.aws4.group;grIcon=mxgraph.aws4.group_security_group;strokeColor=#7AA116;fillColor=none;verticalAlign=top;align=left;spacingLeft=30;fontColor=#248814;dashed=0;" parent="1" vertex="1">
                    <mxGeometry x="260" y="440" width="200" height="200" as="geometry"/>
                </mxCell>
                <mxCell id="ecs-task-2" value="ECS Fargate&#xa;Task" style="outlineConnect=0;dashed=0;verticalLabelPosition=bottom;verticalAlign=top;align=center;html=1;shape=mxgraph.aws4.fargate;fillColor=#F58534;gradientColor=none;" parent="private-subnet-2" vertex="1">
                    <mxGeometry x="60" y="70" width="80" height="60" as="geometry"/>
                </mxCell>
                <mxCell id="9" style="edgeStyle=orthogonalEdgeStyle;html=1;" parent="1" source="ecs-cluster" target="ecs-task-2" edge="1">
                    <mxGeometry relative="1" as="geometry"/>
                </mxCell>
                <mxCell id="10" style="edgeStyle=orthogonalEdgeStyle;html=1;" parent="1" source="ecs-cluster" target="ecs-task-1" edge="1">
                    <mxGeometry relative="1" as="geometry"/>
                </mxCell>
                <mxCell id="ecs-cluster" value="ECS Cluster" style="outlineConnect=0;dashed=0;verticalLabelPosition=bottom;verticalAlign=top;align=center;html=1;shape=mxgraph.aws4.ecs_service;fillColor=#F58534;gradientColor=none;" parent="1" vertex="1">
                    <mxGeometry x="555" y="620" width="80" height="80" as="geometry"/>
                </mxCell>
                <mxCell id="conn7" style="edgeStyle=orthogonalEdgeStyle;rounded=0;orthogonalLoop=1;jettySize=auto;html=1;exitX=0;exitY=0.5;exitDx=0;exitDy=0;" parent="1" source="28" target="15" edge="1">
                    <mxGeometry relative="1" as="geometry">
                        <mxPoint x="1080.90909090909" y="280" as="sourcePoint"/>
                        <mxPoint x="940" y="200" as="targetPoint"/>
                    </mxGeometry>
                </mxCell>
                <mxCell id="conn5" style="rounded=0;orthogonalLoop=1;jettySize=auto;html=1;" parent="1" source="alb" target="ecs-task-1" edge="1">
                    <mxGeometry relative="1" as="geometry"/>
                </mxCell>
                <mxCell id="conn6" style="edgeStyle=orthogonalEdgeStyle;rounded=0;orthogonalLoop=1;jettySize=auto;html=1;" parent="1" source="alb" target="ecs-task-2" edge="1">
                    <mxGeometry relative="1" as="geometry"/>
                </mxCell>
                <mxCell id="7" value="" style="group" parent="1" vertex="1" connectable="0">
                    <mxGeometry x="540" y="340" width="110" height="110" as="geometry"/>
                </mxCell>
                <mxCell id="5" value="" style="sketch=0;points=[[0,0,0],[0.25,0,0],[0.5,0,0],[0.75,0,0],[1,0,0],[0,1,0],[0.25,1,0],[0.5,1,0],[0.75,1,0],[1,1,0],[0,0.25,0],[0,0.5,0],[0,0.75,0],[1,0.25,0],[1,0.5,0],[1,0.75,0]];outlineConnect=0;fontColor=#232F3E;fillColor=#ED7100;strokeColor=#ffffff;dashed=0;verticalLabelPosition=bottom;verticalAlign=top;align=center;html=1;fontSize=12;fontStyle=0;aspect=fixed;shape=mxgraph.aws4.resourceIcon;resIcon=mxgraph.aws4.ecr;" parent="7" vertex="1">
                    <mxGeometry x="15" width="79" height="79" as="geometry"/>
                </mxCell>
                <mxCell id="6" value="&lt;span style=&quot;color: rgb(0, 0, 0);&quot;&gt;ECR Repository&lt;/span&gt;" style="text;html=1;align=center;verticalAlign=middle;resizable=0;points=[];autosize=1;strokeColor=none;fillColor=none;" parent="7" vertex="1">
                    <mxGeometry y="80" width="110" height="30" as="geometry"/>
                </mxCell>
                <mxCell id="11" style="edgeStyle=none;html=1;" parent="1" source="5" target="ecs-cluster" edge="1">
                    <mxGeometry relative="1" as="geometry"/>
                </mxCell>
                <mxCell id="17" value="" style="group" parent="1" vertex="1" connectable="0">
                    <mxGeometry x="824" y="182" width="100" height="118" as="geometry"/>
                </mxCell>
                <mxCell id="15" value="" style="sketch=0;outlineConnect=0;fontColor=#232F3E;gradientColor=none;fillColor=#DD344C;strokeColor=none;dashed=0;verticalLabelPosition=bottom;verticalAlign=top;align=center;html=1;fontSize=12;fontStyle=0;aspect=fixed;pointerEvents=1;shape=mxgraph.aws4.identity_access_management_iam_roles_anywhere;" parent="17" vertex="1">
                    <mxGeometry x="12" width="78" height="78" as="geometry"/>
                </mxCell>
                <mxCell id="16" value="&lt;span style=&quot;color: rgb(0, 0, 0);&quot;&gt;OIDC Provider&lt;/span&gt;&lt;br&gt;&lt;span style=&quot;color: rgb(0, 0, 0);&quot;&gt;(GitHub)&lt;/span&gt;" style="text;html=1;align=center;verticalAlign=middle;resizable=0;points=[];autosize=1;strokeColor=none;fillColor=none;" parent="17" vertex="1">
                    <mxGeometry y="78" width="100" height="40" as="geometry"/>
                </mxCell>
                <mxCell id="29" style="edgeStyle=none;html=1;" parent="1" source="18" target="28" edge="1">
                    <mxGeometry relative="1" as="geometry"/>
                </mxCell>
                <mxCell id="23" value="AWS Account" style="points=[[0,0],[0.25,0],[0.5,0],[0.75,0],[1,0],[1,0.25],[1,0.5],[1,0.75],[1,1],[0.75,1],[0.5,1],[0.25,1],[0,1],[0,0.75],[0,0.5],[0,0.25]];outlineConnect=0;gradientColor=none;html=1;whiteSpace=wrap;fontSize=12;fontStyle=0;container=0;pointerEvents=0;collapsible=0;recursiveResize=0;shape=mxgraph.aws4.group;grIcon=mxgraph.aws4.group_account;strokeColor=#CD2264;fillColor=none;verticalAlign=top;align=left;spacingLeft=30;fontColor=#CD2264;dashed=0;" parent="1" vertex="1">
                    <mxGeometry x="-40" width="1000" height="730" as="geometry"/>
                </mxCell>
                <mxCell id="27" style="edgeStyle=none;html=1;entryX=0.5;entryY=0;entryDx=0;entryDy=0;" parent="1" source="26" target="18" edge="1">
                    <mxGeometry relative="1" as="geometry"/>
                </mxCell>
                <mxCell id="26" value="Developer" style="outlineConnect=0;dashed=0;verticalLabelPosition=bottom;verticalAlign=top;align=center;html=1;shape=mxgraph.aws4.user;fillColor=#232F3E;gradientColor=none;" parent="1" vertex="1">
                    <mxGeometry x="1045" y="-150" width="80" height="80" as="geometry"/>
                </mxCell>
                <mxCell id="30" value="" style="group" parent="1" vertex="1" connectable="0">
                    <mxGeometry x="1040" y="20" width="90" height="130" as="geometry"/>
                </mxCell>
                <mxCell id="18" value="" style="shape=image;verticalLabelPosition=bottom;labelBackgroundColor=default;verticalAlign=top;aspect=fixed;imageAspect=0;image=https://cdn.pixabay.com/photo/2022/01/30/13/33/github-6980894_960_720.png;" parent="30" vertex="1">
                    <mxGeometry width="90" height="90" as="geometry"/>
                </mxCell>
                <mxCell id="22" value="&lt;span style=&quot;color: rgb(0, 0, 0);&quot;&gt;GitHub&lt;/span&gt;&lt;br&gt;&lt;span style=&quot;color: rgb(0, 0, 0);&quot;&gt;Repository&lt;/span&gt;" style="text;html=1;align=center;verticalAlign=middle;resizable=0;points=[];autosize=1;strokeColor=none;fillColor=none;" parent="30" vertex="1">
                    <mxGeometry x="5" y="90" width="80" height="40" as="geometry"/>
                </mxCell>
                <mxCell id="route53" value="Route53" style="outlineConnect=0;dashed=0;verticalLabelPosition=bottom;verticalAlign=top;align=center;html=1;shape=mxgraph.aws4.route_53;fillColor=#F58534;gradientColor=none;" parent="1" vertex="1">
                    <mxGeometry x="320" y="20" width="80" height="80" as="geometry"/>
                </mxCell>
                <mxCell id="14" value="" style="group" parent="1" vertex="1" connectable="0">
                    <mxGeometry x="640" y="20" width="80" height="112" as="geometry"/>
                </mxCell>
                <mxCell id="12" value="" style="sketch=0;outlineConnect=0;fontColor=#232F3E;gradientColor=none;fillColor=#DD344C;strokeColor=none;dashed=0;verticalLabelPosition=bottom;verticalAlign=top;align=center;html=1;fontSize=12;fontStyle=0;aspect=fixed;pointerEvents=1;shape=mxgraph.aws4.certificate_manager_2;" parent="14" vertex="1">
                    <mxGeometry x="2" width="78" height="72" as="geometry"/>
                </mxCell>
                <mxCell id="13" value="Certificate&lt;div&gt;Manager&lt;/div&gt;" style="text;html=1;align=center;verticalAlign=middle;resizable=0;points=[];autosize=1;strokeColor=none;fillColor=none;" parent="14" vertex="1">
                    <mxGeometry y="72" width="80" height="40" as="geometry"/>
                </mxCell>
                <mxCell id="32" value="" style="group" parent="1" vertex="1" connectable="0">
                    <mxGeometry x="1045" y="230" width="80" height="120" as="geometry"/>
                </mxCell>
                <mxCell id="28" value="" style="shape=image;verticalLabelPosition=bottom;labelBackgroundColor=default;verticalAlign=top;aspect=fixed;imageAspect=0;image=https://oji-cloud.net/wp-content/uploads/2023/05/githubaction.png;" parent="32" vertex="1">
                    <mxGeometry width="80" height="80" as="geometry"/>
                </mxCell>
                <mxCell id="31" value="GitHub&lt;div&gt;Actions&lt;/div&gt;" style="text;html=1;align=center;verticalAlign=middle;resizable=0;points=[];autosize=1;strokeColor=none;fillColor=none;" parent="32" vertex="1">
                    <mxGeometry x="10" y="80" width="60" height="40" as="geometry"/>
                </mxCell>
                <mxCell id="35" value="" style="shape=image;verticalLabelPosition=bottom;labelBackgroundColor=default;verticalAlign=top;aspect=fixed;imageAspect=0;image=https://www.omnitech-inc.com/media/izab4guz/net9.png;" vertex="1" parent="1">
                    <mxGeometry x="404" y="519.5" width="73.8" height="41" as="geometry"/>
                </mxCell>
                <mxCell id="36" value="" style="shape=image;verticalLabelPosition=bottom;labelBackgroundColor=default;verticalAlign=top;aspect=fixed;imageAspect=0;image=https://anteku.jp/blog/wp-content/uploads/2021/12/vue-eyecatch-960x504-1.jpeg;clipPath=inset(24.68% 16.33% 26.58% 15.33%);" vertex="1" parent="1">
                    <mxGeometry x="622" y="215" width="79.87" height="30" as="geometry"/>
                </mxCell>
            </root>
        </mxGraphModel>
    </diagram>
</mxfile>